<svg width="130" height="62" viewBox="0 0 130 62" fill="none" xmlns="http://www.w3.org/2000/svg">
<mask id="mask0_5514_28163" style="mask-type:luminance" maskUnits="userSpaceOnUse" x="0" y="0" width="130" height="62">
<path d="M129.616 0H0.449219V62H129.616V0Z" fill="white"/>
</mask>
<g mask="url(#mask0_5514_28163)">
<path d="M4.65847 52.2897L3.54497 50.0578H3.49702V57.7926H1.56836V47.0625H3.81135L7.05597 52.5654L8.16948 54.7973H8.21743V47.0625H10.1461V57.7926H7.90309L4.65847 52.2897Z" fill="#105C37"/>
<path d="M23.3693 57.7926L22.5062 55.057H18.6755L17.8284 57.7926H15.7559L19.3734 47.0625H21.9094L25.495 57.7926H23.3799H23.3693ZM20.6201 48.9074H20.5402L19.1656 53.3182H22.0107L20.6201 48.9074Z" fill="#105C37"/>
<path d="M37.9415 57.7926L37.0784 55.057H33.2477L32.4006 57.7926H30.3281L33.9457 47.0625H36.4817L40.0673 57.7926H37.9522H37.9415ZM35.1924 48.9074H35.1125L33.7379 53.3182H36.5829L35.1924 48.9074Z" fill="#105C37"/>
<path d="M53.8057 50.0896H53.7418L52.9054 51.7967L50.6944 55.8575L48.4834 51.7967L47.6469 50.0896H47.583V57.7926H45.6543V47.0625H47.9559L50.721 52.3056H50.785L53.5181 47.0625H55.7291V57.7926H53.8004V50.0896H53.8057Z" fill="#105C37"/>
<path d="M68.963 57.7926L68.0999 55.057H64.2692L63.4221 57.7926H61.3496L64.9672 47.0625H67.5032L71.0888 57.7926H68.9737H68.963ZM66.2139 48.9074H66.134L64.7594 53.3182H67.6044L66.2139 48.9074Z" fill="#105C37"/>
<path d="M96.583 27.8895V10.8242L88.4421 16.7671C85.5918 18.8506 83.9082 22.1533 83.9082 25.6735V55.3932L92.049 49.4503C94.8994 47.3668 96.583 44.0641 96.583 40.5439V33.2386L91.2552 33.1962L96.583 27.8948V27.8895Z" fill="#008E4B"/>
<path d="M121.479 22.4136C118.629 24.497 116.945 27.7998 116.945 31.32V32.8945L122.097 38.0209H116.945V55.3884L125.086 49.4455C127.937 47.3673 129.62 44.0592 129.62 40.5391V16.4707L121.479 22.4136Z" fill="#1B4831"/>
<path d="M112.956 32.8369V0L104.815 5.94288C101.965 8.02104 100.281 11.3291 100.281 14.8493V27.8907L105.609 33.1921H100.281V62L108.422 56.0571C111.272 53.979 112.956 50.6709 112.956 47.1508V38.0217H107.745L112.956 32.8369Z" fill="#60B87C"/>
<path d="M67.388 17.9459H68.2138C68.9916 17.9459 69.6256 17.7127 70.1318 17.2462C70.6326 16.7796 70.883 16.0321 70.883 15.0037C70.883 13.9752 70.6326 13.18 70.1318 12.7135C69.631 12.2469 68.9916 12.0137 68.2138 12.0137H67.388C66.6101 12.0137 65.9708 12.2469 65.47 12.7135C64.9692 13.18 64.7188 13.9434 64.7188 15.0037C64.7188 16.0639 64.9692 16.7796 65.47 17.2462C65.9708 17.7127 66.6101 17.9459 67.388 17.9459Z" fill="#105C37"/>
<path d="M71.948 29.9392C71.8521 28.8948 71.7189 27.824 71.5591 26.7266L70.8824 22.3847L66.1301 23.1587L66.9079 27.5006C67.1317 28.8206 67.2862 29.8756 67.3714 30.6602C67.4514 31.4501 67.494 32.1022 67.494 32.6164C67.494 33.8411 67.0624 34.684 66.21 35.1505C65.3522 35.617 63.7912 35.8503 61.5269 35.8503H59.0068C57.9413 35.8503 57.1368 35.6488 56.604 35.2459C56.0712 34.843 55.5757 34.0319 55.1229 32.8073L51.3881 22.8618H45.762L42.853 24.6007C38.2924 27.2726 36.0121 30.4588 36.0121 34.1591C36.0121 34.4189 36.0175 34.6575 36.0388 34.8854C36.0548 35.1134 36.0814 35.3361 36.1134 35.5587C35.5646 35.6859 34.9785 35.7708 34.3659 35.8026C33.7532 35.8344 32.9753 35.8503 32.0376 35.8503H9.61833C8.16384 35.8503 7.13558 35.6064 6.53887 35.124C5.94216 34.6416 5.6438 33.7085 5.6438 32.3249V5.92383H0.449219V33.0034C0.449219 36.285 1.20044 38.6335 2.70287 40.049C4.2053 41.4645 6.56018 42.1749 9.76218 42.1749H9.81013H30.711C33.588 42.1749 35.4474 40.6481 36.2892 37.5892H36.6781C37.2588 38.9728 38.2551 40.0861 39.6617 40.9184C41.0682 41.7561 42.9063 42.1749 45.1653 42.1749H51.2283V38.4109L51.5213 38.3632C52.3311 39.715 53.2901 40.6905 54.409 41.2842C55.5225 41.878 57.0515 42.1749 58.9962 42.1749H61.5162C65.203 42.1749 67.8882 41.4009 69.5665 39.8582C71.2501 38.3154 72.0865 35.898 72.0865 32.6164C72.0865 31.8742 72.0386 30.9836 71.9427 29.9392H71.948ZM43.7641 35.8503C42.6292 35.8503 41.7342 35.6753 41.0735 35.3201C40.4076 34.965 40.0772 34.3712 40.0772 33.5336C40.0772 32.8285 40.4235 32.1658 41.1215 31.5561C41.8141 30.9465 42.8104 30.3633 44.105 29.8173L47.4988 28.3223L50.3598 35.8556H43.7641V35.8503Z" fill="#105C37"/>
</g>
</svg>
