<svg width="48" height="41" viewBox="0 0 48 41" fill="none" xmlns="http://www.w3.org/2000/svg">
<path d="M35.4307 27.2595C39.0454 25.1725 40.2839 20.5504 38.1969 16.9357C36.11 13.321 31.4878 12.0825 27.8731 14.1695C24.2584 16.2564 23.0199 20.8785 25.1069 24.4932C27.1938 28.1079 31.816 29.3464 35.4307 27.2595Z" stroke="#DBA102" stroke-width="1.3" stroke-miterlimit="10"/>
<path d="M37.1547 25.5935L41.5148 33.1455C42.1543 34.2531 41.7712 35.6826 40.6636 36.322C39.556 36.9615 38.1265 36.5785 37.4871 35.4709L34.2897 29.9328" stroke="#DBA102" stroke-width="1.3" stroke-miterlimit="10"/>
<path d="M38.6289 32.7979L39.2103 33.8048" stroke="#DBA102" stroke-width="1.3" stroke-miterlimit="10"/>
<path d="M37.4648 30.7837L38.0462 31.7906" stroke="#DBA102" stroke-width="1.3" stroke-miterlimit="10"/>
<path d="M36.3027 28.7695L36.8841 29.7764" stroke="#DBA102" stroke-width="1.3" stroke-miterlimit="10"/>
<path d="M31.5072 16.6717L31.5073 19.2151L31.5074 21.7585" stroke="#DBA102" stroke-width="1.3" stroke-miterlimit="10"/>
<path d="M31.5079 22.4855L31.5084 23.939" stroke="#DBA102" stroke-width="1.3" stroke-miterlimit="10"/>
<path d="M25.4166 33.5555H1V1H37.0435V12.0456" stroke="#9DA4AE" stroke-width="1.3" stroke-miterlimit="10"/>
<path d="M1 5.65137H37.0435" stroke="#9DA4AE" stroke-width="1.3" stroke-miterlimit="10"/>
<path d="M2.74414 3.32568H3.90682" stroke="#9DA4AE" stroke-width="1.3" stroke-miterlimit="10"/>
<path d="M5.06836 3.32568H6.23104" stroke="#9DA4AE" stroke-width="1.3" stroke-miterlimit="10"/>
<path d="M7.39453 3.32568H8.5573" stroke="#9DA4AE" stroke-width="1.3" stroke-miterlimit="10"/>
<path d="M10.3027 1V5.6508" stroke="#9DA4AE" stroke-width="1.3" stroke-miterlimit="10"/>
<path d="M25.4154 31.23H3.32422V7.97607H34.717V10.8828" stroke="#9DA4AE" stroke-width="1.3" stroke-miterlimit="10"/>
<path d="M20.1847 19.2872H16.1152V12.311H23.6728" stroke="#D2D6DB" stroke-width="1.3" stroke-miterlimit="10"/>
<path d="M6.23242 23.3315H14.3713" stroke="#D2D6DB" stroke-width="1.3" stroke-miterlimit="10"/>
<path d="M6.23242 27.1353H14.3713" stroke="#D2D6DB" stroke-width="1.3" stroke-miterlimit="10"/>
<path d="M15.5332 23.3315H20.184" stroke="#D2D6DB" stroke-width="1.3" stroke-miterlimit="10"/>
<path d="M15.5332 27.1353H23.672" stroke="#D2D6DB" stroke-width="1.3" stroke-miterlimit="10"/>
<path d="M8.49954 14.935V12.6338L7.4072 13.4352C7.02473 13.7161 6.79883 14.1615 6.79883 14.6362V18.6438L7.89117 17.8424C8.27364 17.5615 8.49954 17.1161 8.49954 16.6414V15.6563L7.78465 15.6506L8.49954 14.9357V14.935Z" fill="#9DA4AE"/>
<path d="M11.8388 14.1959C11.4564 14.4769 11.2305 14.9222 11.2305 15.3969V15.6092L11.9218 16.3005H11.2305V18.6425L12.3228 17.8411C12.7053 17.5609 12.9312 17.1148 12.9312 16.6401V13.3945L11.8388 14.1959Z" fill="#9DA4AE"/>
<path d="M10.6968 15.6013V11.1733L9.60446 11.9747C9.222 12.255 8.99609 12.701 8.99609 13.1757V14.9343L9.71098 15.6492H8.99609V19.5339L10.0884 18.7325C10.4709 18.4523 10.6968 18.0062 10.6968 17.5315V16.3005H9.99765L10.6968 15.6013Z" fill="#9DA4AE"/>
</svg>
