<svg width="24" height="28" viewBox="0 0 24 28" fill="none" xmlns="http://www.w3.org/2000/svg">
<path d="M2.27686 26.1818C2.27974 24.0902 2.97657 22.0587 4.25814 20.4057C5.5397 18.7527 7.33355 17.5717 9.35847 17.0478C9.50437 17.0147 9.64234 16.9533 9.76449 16.8669C9.88665 16.7806 9.99059 16.671 10.0704 16.5445C10.1502 16.418 10.2043 16.2769 10.2296 16.1295C10.2549 15.9821 10.251 15.8311 10.2179 15.6852C10.1849 15.5393 10.1234 15.4013 10.0371 15.2792C9.95072 15.157 9.84115 15.0531 9.71462 14.9733C9.58809 14.8935 9.44708 14.8394 9.29965 14.814C9.15221 14.7887 9.00123 14.7927 8.85533 14.8257C6.31801 15.4483 4.06436 16.9074 2.45783 18.9677C0.851297 21.0279 -0.0144599 23.5693 0.000182731 26.1818C0.000182731 26.4837 0.120115 26.7733 0.333595 26.9867C0.547075 27.2002 0.836616 27.3202 1.13852 27.3202C1.44043 27.3202 1.72997 27.2002 1.94345 26.9867C2.15693 26.7733 2.27686 26.4837 2.27686 26.1818ZM9.64647 12.5217C8.40819 12.5217 7.19772 12.1545 6.16812 11.4666C5.13853 10.7786 4.33606 9.80083 3.86219 8.6568C3.38832 7.51278 3.26433 6.25393 3.50591 5.03944C3.74748 3.82495 4.34377 2.70937 5.21937 1.83377C6.09497 0.958171 7.21055 0.361881 8.42504 0.120304C9.63953 -0.121273 10.8984 0.00271278 12.0424 0.476583C13.1864 0.950454 14.1642 1.75292 14.8522 2.78252C15.5401 3.81211 15.9073 5.02259 15.9073 6.26087C15.9055 7.9208 15.2453 9.51223 14.0716 10.686C12.8978 11.8597 11.3064 12.5199 9.64647 12.5217ZM9.64647 2.27668C8.85848 2.27668 8.08817 2.51035 7.43298 2.94814C6.77778 3.38593 6.26712 4.00817 5.96556 4.73619C5.66401 5.4642 5.58511 6.26529 5.73884 7.03815C5.89257 7.81101 6.27203 8.52092 6.82923 9.07812C7.38643 9.63532 8.09634 10.0148 8.8692 10.1685C9.64205 10.3222 10.4431 10.2433 11.1712 9.94178C11.8992 9.64023 12.5214 9.12957 12.9592 8.47437C13.397 7.81917 13.6307 7.04887 13.6307 6.26087C13.6307 5.2042 13.2109 4.19081 12.4637 3.44362C11.7165 2.69644 10.7031 2.27668 9.64647 2.27668Z" fill="#91C7A9"/>
<path d="M24 20.9412H22.4612C22.3412 20.4471 22.1506 19.9882 21.8894 19.5788L22.9765 18.4918L21.4941 17.0094L20.4071 18.0965C19.9976 17.8424 19.5388 17.6518 19.0588 17.5388V16H16.9412V17.5388C16.4612 17.6518 16.0024 17.8424 15.5929 18.0965L14.5059 17.0094L13.0094 18.5059L14.0965 19.5929C13.8424 20.0024 13.6518 20.4612 13.5388 20.9412H12V23.0376H13.5318C13.6447 23.5318 13.8424 23.9906 14.0965 24.4071L13.0094 25.4941L14.4918 26.9765L15.5788 25.8894C15.9882 26.1506 16.4541 26.3412 16.9412 26.4612V28H19.0588V26.4612C19.5388 26.3482 19.9976 26.1576 20.4071 25.9035L21.4941 26.9906L22.9906 25.4941L21.9035 24.4071C22.1576 23.9906 22.3553 23.5318 22.4682 23.0376H24V20.9412ZM18 19.8824C19.1718 19.8824 20.1176 20.8282 20.1176 22C20.1176 23.1718 19.1718 24.1176 18 24.1176C16.8282 24.1176 15.8824 23.1718 15.8824 22C15.8824 20.8282 16.8282 19.8824 18 19.8824Z" fill="#91C7A9"/>
</svg>
