<svg width="24" height="24" viewBox="0 0 24 24" fill="none" xmlns="http://www.w3.org/2000/svg">
<path d="M17.875 8.13759V6.56245M12.25 0.9375H2.875C1.83948 0.9375 1 1.77698 1 2.8125V21.1875C1 22.223 1.83948 23.0625 2.875 23.0625H7.081M12.25 0.9375V4.6875C12.25 5.72302 13.0895 6.5625 14.125 6.5625H17.875L12.25 0.9375ZM4.75 9.9375H14.125M4.75 13.6875H12.3251M4.75 17.4375H8.77989M13.1058 22.6223L10.9046 23.0625L11.3449 20.8613C11.4901 20.1353 11.8469 19.4686 12.3704 18.9451L20.4733 10.8422L23.125 13.4938L15.0221 21.5967C14.4986 22.1202 13.8318 22.4771 13.1058 22.6223Z" stroke="#91C7A9" stroke-width="1.5" stroke-miterlimit="10" stroke-linecap="round" stroke-linejoin="round"/>
</svg>
