<svg width="21" height="26" viewBox="0 0 21 26" fill="none" xmlns="http://www.w3.org/2000/svg">
<path d="M20.4155 5.43517L15.5123 0.218207C15.3808 0.078322 15.2039 -3.5667e-05 15.0196 1.21792e-08L2.6235 1.21792e-08C1.17703 1.21792e-08 0 1.27486 0 2.84218V23.1578C0 24.7249 1.1768 26 2.62355 26H18.0023C19.4489 26 20.6259 24.7251 20.6259 23.1578V5.97868C20.6259 5.87748 20.6073 5.7773 20.5712 5.68398C20.535 5.59066 20.4821 5.50608 20.4155 5.43517H20.4155ZM15.7227 2.57755L18.2034 5.21696H15.9463C15.887 5.21687 15.8302 5.19131 15.7883 5.14591C15.7464 5.1005 15.7228 5.03894 15.7227 4.97473V2.57755ZM18.0024 24.4766H2.62355C1.95244 24.4766 1.40625 23.8851 1.40625 23.1578V2.84223C1.40625 2.11499 1.95225 1.52344 2.62355 1.52344H14.3167V4.97478C14.3167 5.94836 15.0478 6.74045 15.9465 6.74045H19.2197V23.1578C19.2197 23.885 18.6736 24.4765 18.0023 24.4765L18.0024 24.4766Z" fill="#91C7A9"/>
<path d="M15.1942 12.0859H5.28223C4.89387 12.0859 4.5791 12.4269 4.5791 12.8477C4.5791 13.2684 4.89387 13.6094 5.28223 13.6094H15.1941C15.5825 13.6094 15.8973 13.2684 15.8973 12.8477C15.8973 12.4269 15.5825 12.0859 15.1942 12.0859ZM5.28227 16.6562H13.3642C13.7526 16.6562 14.0673 16.3153 14.0673 15.8945C14.0673 15.4738 13.7526 15.1328 13.3642 15.1328H5.28227C4.89391 15.1328 4.57915 15.4738 4.57915 15.8945C4.57915 16.3153 4.89391 16.6562 5.28227 16.6562ZM14.3392 18.1797H5.28227C4.89391 18.1797 4.57915 18.5207 4.57915 18.9414C4.57915 19.3621 4.89391 19.7031 5.28227 19.7031H14.3392C14.7274 19.7031 15.0424 19.3621 15.0424 18.9414C15.0424 18.5207 14.7274 18.1797 14.3392 18.1797Z" fill="#91C7A9"/>
</svg>
