<svg width="25" height="28" viewBox="0 0 25 28" fill="none" xmlns="http://www.w3.org/2000/svg">
<path d="M23.8471 26.3491L20.594 23.096C21.4805 22.0117 21.9163 20.6282 21.8114 19.2316C21.7065 17.835 21.0688 16.5322 20.0302 15.5926C18.9916 14.653 17.6316 14.1485 16.2315 14.1835C14.8314 14.2185 13.4983 14.7903 12.508 15.7807C11.5177 16.771 10.9459 18.1041 10.9109 19.5042C10.8759 20.9043 11.3803 22.2642 12.3199 23.3028C13.2595 24.3414 14.5624 24.9791 15.959 25.084C17.3556 25.189 18.7391 24.7531 19.8233 23.8666L23.0765 27.1197C23.1792 27.219 23.3169 27.2739 23.4598 27.2727C23.6027 27.2715 23.7394 27.2141 23.8405 27.1131C23.9415 27.012 23.9988 26.8754 24.0001 26.7325C24.0013 26.5896 23.9464 26.4519 23.8471 26.3491ZM16.3767 24.0094C15.5144 24.0094 14.6714 23.7537 13.9544 23.2746C13.2374 22.7955 12.6785 22.1145 12.3485 21.3178C12.0185 20.5212 11.9322 19.6445 12.1004 18.7987C12.2686 17.953 12.6839 17.1761 13.2937 16.5663C13.9034 15.9565 14.6803 15.5413 15.5261 15.3731C16.3719 15.2048 17.2485 15.2912 18.0452 15.6212C18.8419 15.9512 19.5229 16.51 20.0019 17.227C20.481 17.944 20.7367 18.787 20.7367 19.6493C20.7354 20.8053 20.2757 21.9135 19.4583 22.7309C18.6409 23.5483 17.5327 24.0081 16.3767 24.0094Z" fill="#91C7A9" stroke="#91C7A9"/>
<path d="M2.18199 25.0909C2.18475 23.0865 2.85255 21.1396 4.08072 19.5555C5.30888 17.9713 7.02798 16.8395 8.96854 16.3375C9.10836 16.3058 9.24058 16.2469 9.35764 16.1641C9.4747 16.0814 9.57432 15.9764 9.6508 15.8551C9.72728 15.7339 9.77913 15.5987 9.80339 15.4574C9.82765 15.3162 9.82384 15.1715 9.79217 15.0316C9.76051 14.8918 9.70162 14.7596 9.61887 14.6425C9.53611 14.5255 9.4311 14.4259 9.30985 14.3494C9.18859 14.2729 9.05346 14.221 8.91216 14.1968C8.77087 14.1725 8.62618 14.1763 8.48636 14.208C6.05476 14.8047 3.89501 16.203 2.35542 18.1774C0.815826 20.1518 -0.0138574 22.5872 0.000175117 25.0909C0.000175117 25.3802 0.11511 25.6577 0.319695 25.8623C0.52428 26.0669 0.801757 26.1818 1.09108 26.1818C1.38041 26.1818 1.65789 26.0669 1.86247 25.8623C2.06706 25.6577 2.18199 25.3802 2.18199 25.0909ZM9.24454 12C8.05785 12 6.89781 11.6481 5.91112 10.9888C4.92442 10.3295 4.15539 9.39246 3.70126 8.2961C3.24714 7.19975 3.12832 5.99335 3.35983 4.82946C3.59134 3.66558 4.16278 2.59648 5.0019 1.75736C5.84101 0.918247 6.91011 0.346802 8.074 0.115291C9.23788 -0.11622 10.4443 0.00259975 11.5406 0.456726C12.637 0.910851 13.5741 1.67989 14.2334 2.66658C14.8926 3.65328 15.2445 4.81331 15.2445 6C15.2428 7.59077 14.6101 9.11589 13.4853 10.2407C12.3604 11.3656 10.8353 11.9983 9.24454 12ZM9.24454 2.18182C8.48937 2.18182 7.75117 2.40575 7.12327 2.8253C6.49537 3.24485 6.00599 3.84117 5.717 4.53885C5.42801 5.23653 5.3524 6.00424 5.49972 6.74489C5.64705 7.48555 6.01069 8.16588 6.54468 8.69987C7.07866 9.23385 7.75899 9.5975 8.49965 9.74482C9.2403 9.89215 10.008 9.81653 10.7057 9.52754C11.4034 9.23856 11.9997 8.74917 12.4192 8.12127C12.8388 7.49337 13.0627 6.75517 13.0627 6C13.0627 4.98736 12.6604 4.01619 11.9444 3.30014C11.2284 2.58409 10.2572 2.18182 9.24454 2.18182Z" fill="#91C7A9"/>
</svg>
