<svg width="26" height="23" viewBox="0 0 26 23" fill="none" xmlns="http://www.w3.org/2000/svg">
<path d="M1 22C1.62222 19.9349 2.90683 18.112 4.67018 16.7919C6.43354 15.4718 8.58537 14.7221 10.818 14.65C15.3125 14.65 19.1416 17.7055 20.6361 22M19.3494 3.56206C20.1803 3.97212 20.8527 4.62794 21.2677 5.43315C21.6827 6.23836 21.8184 7.15041 21.6548 8.03534C21.4911 8.92025 21.0369 9.73128 20.3588 10.3493C19.6808 10.9672 18.8145 11.3595 17.8876 11.4685M18.8037 14.1986C20.259 14.5555 21.5938 15.2677 22.6792 16.2666C23.7648 17.2653 24.5641 18.5168 25 19.9M11.0354 11.5C14.0477 11.5 16.4898 9.14949 16.4898 6.25C16.4898 3.35051 14.0477 1 11.0354 1C8.02295 1 5.5809 3.35051 5.5809 6.25C5.5809 9.14949 8.02295 11.5 11.0354 11.5Z" stroke="#91C7A9" stroke-width="2" stroke-linecap="round" stroke-linejoin="round"/>
</svg>
