<svg width="9" height="11" viewBox="0 0 9 11" fill="none" xmlns="http://www.w3.org/2000/svg">
<path d="M9 5.49994C9.00007 5.5656 8.98716 5.63064 8.96202 5.6913C8.93688 5.75197 8.9 5.80707 8.8535 5.85344L3.85353 10.8534C3.65815 11.0488 3.34178 11.0488 3.14653 10.8534C2.95128 10.658 2.95116 10.3417 3.14653 10.1464L7.79301 5.49994L3.14653 0.853462C2.95116 0.658088 2.95116 0.341714 3.14653 0.146465C3.3419 -0.0487843 3.65828 -0.0489093 3.85353 0.146465L8.8535 5.14644C8.9 5.19281 8.93688 5.24791 8.96202 5.30857C8.98716 5.36924 9.00007 5.43427 9 5.49994Z" fill="white"/>
<path d="M6 5.49994C6.00007 5.5656 5.98716 5.63064 5.96202 5.6913C5.93688 5.75197 5.9 5.80707 5.8535 5.85344L0.853527 10.8534C0.658153 11.0488 0.341779 11.0488 0.14653 10.8534C-0.0487185 10.658 -0.0488435 10.3417 0.14653 10.1464L4.79301 5.49994L0.14653 0.853462C-0.0488435 0.658088 -0.0488435 0.341714 0.14653 0.146465C0.341904 -0.0487843 0.658278 -0.0489093 0.853527 0.146465L5.8535 5.14644C5.9 5.19281 5.93688 5.24791 5.96202 5.30857C5.98716 5.36924 6.00007 5.43427 6 5.49994Z" fill="white"/>
</svg>
