<svg width="16" height="17" viewBox="0 0 16 17" fill="none" xmlns="http://www.w3.org/2000/svg">
	<path fill-rule="evenodd" clip-rule="evenodd" d="M15.9886 0.799959C15.9886 0.358117 15.6305 0 15.1886 0H9.53179C9.08995 0 8.73183 0.358117 8.73183 0.799959C8.73183 1.2418 9.08995 1.59992 9.53179 1.59992H13.2573L7.83464 7.02258C7.52218 7.33504 7.52218 7.84157 7.83464 8.15388C8.1471 8.46634 8.65349 8.46634 8.96594 8.15388L14.3886 2.73122V6.45673C14.3886 6.89843 14.7469 7.25669 15.1886 7.25669C15.6304 7.25669 15.9885 6.89843 15.9885 6.45673L15.9886 0.799959ZM4.60703 16.0116H11.3932C12.0372 16.0116 12.5687 16.0116 13.0016 15.9762C13.4513 15.9395 13.8646 15.8607 14.2529 15.6628C14.855 15.3562 15.3446 14.8665 15.6512 14.2645C15.8491 13.8762 15.9279 13.4628 15.9646 13.0132C16 12.5803 16 12.0488 16 11.4048V10.8118C16 10.37 15.6419 10.0118 15.2 10.0118C14.7582 10.0118 14.4001 10.37 14.4001 10.8118V11.3718C14.4001 12.0571 14.3994 12.5229 14.3701 12.883C14.3414 13.2338 14.2895 13.4131 14.2257 13.5382C14.0724 13.8393 13.8275 14.0841 13.5264 14.2374C13.4014 14.3012 13.222 14.3532 12.8713 14.3818C12.5111 14.4112 12.0453 14.4118 11.36 14.4118H4.63998C3.95467 14.4118 3.48886 14.4112 3.12886 14.3818C2.77811 14.3532 2.59876 14.3012 2.47369 14.2374C2.17262 14.0841 1.92779 13.8393 1.77443 13.5382C1.71068 13.4131 1.65871 13.2338 1.63005 12.883C1.60059 12.5229 1.60005 12.0571 1.60005 11.3718V4.65172C1.60005 3.96641 1.60072 3.5006 1.63005 3.1406C1.65871 2.78985 1.71068 2.6105 1.77443 2.48543C1.92778 2.18436 2.17259 1.93953 2.47369 1.78617C2.59878 1.72242 2.77811 1.67045 3.12886 1.64179C3.489 1.61233 3.95481 1.61179 4.63998 1.61179H5.19993C5.64178 1.61179 5.99989 1.25368 5.99989 0.811833C5.99989 0.36999 5.64178 0.0118732 5.19993 0.0118732H4.60689C3.96297 0.0118732 3.4314 0.0118732 2.99854 0.0472288C2.54881 0.0839251 2.13549 0.16281 1.74724 0.360623C1.14511 0.667455 0.655574 1.15698 0.34875 1.75911C0.150937 2.14737 0.072052 2.56082 0.0353558 3.01041C1.41008e-07 3.44341 0 3.97484 0 4.61876V11.405C0 12.049 1.41008e-07 12.5805 0.0353558 13.0133C0.072052 13.4631 0.150937 13.8764 0.34875 14.2646C0.655581 14.8668 1.14511 15.3563 1.74724 15.663C2.13549 15.8608 2.54895 15.9397 2.99854 15.9764C3.43153 16.0117 3.96297 16.0117 4.60703 16.0117L4.60703 16.0116Z" fill="#4789C8"/>
</svg>