<svg width="84" height="87" viewBox="0 0 84 87" fill="none" xmlns="http://www.w3.org/2000/svg">
<path d="M82.163 44.681C82.163 67.2405 64.0897 85.499 41.8315 85.499C19.5733 85.499 1.5 67.2405 1.5 44.681C1.5 22.1215 19.5733 3.8631 41.8315 3.8631C64.0897 3.8631 82.163 22.1215 82.163 44.681Z" fill="#CAEACD" stroke="#63BE6C" stroke-width="3"/>
<path d="M44.4601 44.671L48.7591 41.8643C50.8175 40.5206 52.0963 38.0468 52.0963 35.4092V29.6549H53.3396V25.075H29.6604V29.6545H30.9037V35.4092C30.9037 38.0468 32.1825 40.5206 34.2413 41.8648L38.5395 44.671C38.6698 44.7565 38.7778 44.8779 38.853 45.0232C38.9281 45.1685 38.9678 45.3327 38.9681 45.5C38.9681 45.8388 38.8043 46.1566 38.5395 46.329L34.2413 49.1356C32.1821 50.4794 30.9037 52.9528 30.9037 55.5908V61.3451H29.6604V65.925H53.3396V61.3455H52.0963V55.5904C52.0963 52.9523 50.8175 50.479 48.7591 49.1352L44.4605 46.3286C44.3302 46.2431 44.2221 46.1219 44.147 45.9767C44.0719 45.8314 44.0322 45.6672 44.0319 45.5C44.0319 45.1612 44.1957 44.8434 44.4601 44.671ZM43.6212 47.8908L47.9202 50.6974C48.6895 51.2024 49.3269 51.9187 49.7702 52.7763C50.2135 53.634 50.4477 54.6037 50.4497 55.5908V61.3451H49.0036V58.8855C49.0016 58.2899 48.8601 57.7049 48.5928 57.1874C48.3255 56.6698 47.9415 56.2372 47.4779 55.9314L43.3556 53.2434C42.7928 52.8765 42.151 52.6829 41.4972 52.6831C40.8433 52.6832 40.2015 52.8771 39.6389 53.2443L35.5221 55.9314C35.0585 56.2372 34.6745 56.6698 34.4072 57.1874C34.1399 57.7049 33.9984 58.2899 33.9964 58.8855V61.3451H32.5503V55.5908C32.5503 53.5913 33.5194 51.7165 35.0802 50.6974L39.3784 47.8908C40.1408 47.3933 40.6147 46.477 40.6147 45.5C40.6147 44.523 40.1408 43.6067 39.3784 43.1092L35.0798 40.3026C34.3105 39.7976 33.673 39.0814 33.2296 38.2237C32.7862 37.3661 32.552 36.3964 32.5499 35.4092V29.6549H50.4493V35.4092C50.4493 37.4087 49.4802 39.2835 47.9198 40.3026L43.6216 43.1088C42.8591 43.6067 42.3853 44.5235 42.3853 45.5C42.3853 46.4765 42.8588 47.3933 43.6212 47.8908Z" fill="#0A8944"/>
</svg>
